<?xml version="1.0" encoding="utf-8" standalone="no"?>
<!DOCTYPE svg PUBLIC "-//W3C//DTD SVG 1.1//EN"
  "http://www.w3.org/Graphics/SVG/1.1/DTD/svg11.dtd">
<svg xmlns:xlink="http://www.w3.org/1999/xlink" width="460.8pt" height="345.6pt" viewBox="0 0 460.8 345.6" xmlns="http://www.w3.org/2000/svg" version="1.1">
 <metadata>
  <rdf:RDF xmlns:dc="http://purl.org/dc/elements/1.1/" xmlns:cc="http://creativecommons.org/ns#" xmlns:rdf="http://www.w3.org/1999/02/22-rdf-syntax-ns#">
   <cc:Work>
    <dc:type rdf:resource="http://purl.org/dc/dcmitype/StillImage"/>
    <dc:date>2022-12-08T20:33:17.993886</dc:date>
    <dc:format>image/svg+xml</dc:format>
    <dc:creator>
     <cc:Agent>
      <dc:title>Matplotlib v3.5.2, https://matplotlib.org/</dc:title>
     </cc:Agent>
    </dc:creator>
   </cc:Work>
  </rdf:RDF>
 </metadata>
 <defs>
  <style type="text/css">*{stroke-linejoin: round; stroke-linecap: butt}</style>
 </defs>
 <g id="figure_1">
  <g id="patch_1">
   <path d="M 0 345.6 
L 460.8 345.6 
L 460.8 0 
L 0 0 
z
" style="fill: #ffffff"/>
  </g>
  <g id="axes_1">
   <g id="patch_2">
    <path d="M 57.6 307.584 
L 414.72 307.584 
L 414.72 41.472 
L 57.6 41.472 
z
" style="fill: #ffffff"/>
   </g>
   <g id="matplotlib.axis_1">
    <g id="xtick_1">
     <g id="line2d_1">
      <defs>
       <path id="mfaa1033d65" d="M 0 0 
L 0 3.5 
" style="stroke: #000000; stroke-width: 0.8"/>
      </defs>
      <g>
       <use xlink:href="#mfaa1033d65" x="73.832727" y="307.584" style="stroke: #000000; stroke-width: 0.8"/>
      </g>
     </g>
     <g id="text_1">
      <!-- 0 -->
      <g transform="translate(70.651477 322.182437)scale(0.1 -0.1)">
       <defs>
        <path id="DejaVuSans-30" d="M 2034 4250 
Q 1547 4250 1301 3770 
Q 1056 3291 1056 2328 
Q 1056 1369 1301 889 
Q 1547 409 2034 409 
Q 2525 409 2770 889 
Q 3016 1369 3016 2328 
Q 3016 3291 2770 3770 
Q 2525 4250 2034 4250 
z
M 2034 4750 
Q 2819 4750 3233 4129 
Q 3647 3509 3647 2328 
Q 3647 1150 3233 529 
Q 2819 -91 2034 -91 
Q 1250 -91 836 529 
Q 422 1150 422 2328 
Q 422 3509 836 4129 
Q 1250 4750 2034 4750 
z
" transform="scale(0.015625)"/>
       </defs>
       <use xlink:href="#DejaVuSans-30"/>
      </g>
     </g>
    </g>
    <g id="xtick_2">
     <g id="line2d_2">
      <g>
       <use xlink:href="#mfaa1033d65" x="113.521547" y="307.584" style="stroke: #000000; stroke-width: 0.8"/>
      </g>
     </g>
     <g id="text_2">
      <!-- 50 -->
      <g transform="translate(107.159047 322.182437)scale(0.1 -0.1)">
       <defs>
        <path id="DejaVuSans-35" d="M 691 4666 
L 3169 4666 
L 3169 4134 
L 1269 4134 
L 1269 2991 
Q 1406 3038 1543 3061 
Q 1681 3084 1819 3084 
Q 2600 3084 3056 2656 
Q 3513 2228 3513 1497 
Q 3513 744 3044 326 
Q 2575 -91 1722 -91 
Q 1428 -91 1123 -41 
Q 819 9 494 109 
L 494 744 
Q 775 591 1075 516 
Q 1375 441 1709 441 
Q 2250 441 2565 725 
Q 2881 1009 2881 1497 
Q 2881 1984 2565 2268 
Q 2250 2553 1709 2553 
Q 1456 2553 1204 2497 
Q 953 2441 691 2322 
L 691 4666 
z
" transform="scale(0.015625)"/>
       </defs>
       <use xlink:href="#DejaVuSans-35"/>
       <use xlink:href="#DejaVuSans-30" x="63.623047"/>
      </g>
     </g>
    </g>
    <g id="xtick_3">
     <g id="line2d_3">
      <g>
       <use xlink:href="#mfaa1033d65" x="153.210367" y="307.584" style="stroke: #000000; stroke-width: 0.8"/>
      </g>
     </g>
     <g id="text_3">
      <!-- 100 -->
      <g transform="translate(143.666617 322.182437)scale(0.1 -0.1)">
       <defs>
        <path id="DejaVuSans-31" d="M 794 531 
L 1825 531 
L 1825 4091 
L 703 3866 
L 703 4441 
L 1819 4666 
L 2450 4666 
L 2450 531 
L 3481 531 
L 3481 0 
L 794 0 
L 794 531 
z
" transform="scale(0.015625)"/>
       </defs>
       <use xlink:href="#DejaVuSans-31"/>
       <use xlink:href="#DejaVuSans-30" x="63.623047"/>
       <use xlink:href="#DejaVuSans-30" x="127.246094"/>
      </g>
     </g>
    </g>
    <g id="xtick_4">
     <g id="line2d_4">
      <g>
       <use xlink:href="#mfaa1033d65" x="192.899186" y="307.584" style="stroke: #000000; stroke-width: 0.8"/>
      </g>
     </g>
     <g id="text_4">
      <!-- 150 -->
      <g transform="translate(183.355436 322.182437)scale(0.1 -0.1)">
       <use xlink:href="#DejaVuSans-31"/>
       <use xlink:href="#DejaVuSans-35" x="63.623047"/>
       <use xlink:href="#DejaVuSans-30" x="127.246094"/>
      </g>
     </g>
    </g>
    <g id="xtick_5">
     <g id="line2d_5">
      <g>
       <use xlink:href="#mfaa1033d65" x="232.588006" y="307.584" style="stroke: #000000; stroke-width: 0.8"/>
      </g>
     </g>
     <g id="text_5">
      <!-- 200 -->
      <g transform="translate(223.044256 322.182437)scale(0.1 -0.1)">
       <defs>
        <path id="DejaVuSans-32" d="M 1228 531 
L 3431 531 
L 3431 0 
L 469 0 
L 469 531 
Q 828 903 1448 1529 
Q 2069 2156 2228 2338 
Q 2531 2678 2651 2914 
Q 2772 3150 2772 3378 
Q 2772 3750 2511 3984 
Q 2250 4219 1831 4219 
Q 1534 4219 1204 4116 
Q 875 4013 500 3803 
L 500 4441 
Q 881 4594 1212 4672 
Q 1544 4750 1819 4750 
Q 2544 4750 2975 4387 
Q 3406 4025 3406 3419 
Q 3406 3131 3298 2873 
Q 3191 2616 2906 2266 
Q 2828 2175 2409 1742 
Q 1991 1309 1228 531 
z
" transform="scale(0.015625)"/>
       </defs>
       <use xlink:href="#DejaVuSans-32"/>
       <use xlink:href="#DejaVuSans-30" x="63.623047"/>
       <use xlink:href="#DejaVuSans-30" x="127.246094"/>
      </g>
     </g>
    </g>
    <g id="xtick_6">
     <g id="line2d_6">
      <g>
       <use xlink:href="#mfaa1033d65" x="272.276826" y="307.584" style="stroke: #000000; stroke-width: 0.8"/>
      </g>
     </g>
     <g id="text_6">
      <!-- 250 -->
      <g transform="translate(262.733076 322.182437)scale(0.1 -0.1)">
       <use xlink:href="#DejaVuSans-32"/>
       <use xlink:href="#DejaVuSans-35" x="63.623047"/>
       <use xlink:href="#DejaVuSans-30" x="127.246094"/>
      </g>
     </g>
    </g>
    <g id="xtick_7">
     <g id="line2d_7">
      <g>
       <use xlink:href="#mfaa1033d65" x="311.965646" y="307.584" style="stroke: #000000; stroke-width: 0.8"/>
      </g>
     </g>
     <g id="text_7">
      <!-- 300 -->
      <g transform="translate(302.421896 322.182437)scale(0.1 -0.1)">
       <defs>
        <path id="DejaVuSans-33" d="M 2597 2516 
Q 3050 2419 3304 2112 
Q 3559 1806 3559 1356 
Q 3559 666 3084 287 
Q 2609 -91 1734 -91 
Q 1441 -91 1130 -33 
Q 819 25 488 141 
L 488 750 
Q 750 597 1062 519 
Q 1375 441 1716 441 
Q 2309 441 2620 675 
Q 2931 909 2931 1356 
Q 2931 1769 2642 2001 
Q 2353 2234 1838 2234 
L 1294 2234 
L 1294 2753 
L 1863 2753 
Q 2328 2753 2575 2939 
Q 2822 3125 2822 3475 
Q 2822 3834 2567 4026 
Q 2313 4219 1838 4219 
Q 1578 4219 1281 4162 
Q 984 4106 628 3988 
L 628 4550 
Q 988 4650 1302 4700 
Q 1616 4750 1894 4750 
Q 2613 4750 3031 4423 
Q 3450 4097 3450 3541 
Q 3450 3153 3228 2886 
Q 3006 2619 2597 2516 
z
" transform="scale(0.015625)"/>
       </defs>
       <use xlink:href="#DejaVuSans-33"/>
       <use xlink:href="#DejaVuSans-30" x="63.623047"/>
       <use xlink:href="#DejaVuSans-30" x="127.246094"/>
      </g>
     </g>
    </g>
    <g id="xtick_8">
     <g id="line2d_8">
      <g>
       <use xlink:href="#mfaa1033d65" x="351.654465" y="307.584" style="stroke: #000000; stroke-width: 0.8"/>
      </g>
     </g>
     <g id="text_8">
      <!-- 350 -->
      <g transform="translate(342.110715 322.182437)scale(0.1 -0.1)">
       <use xlink:href="#DejaVuSans-33"/>
       <use xlink:href="#DejaVuSans-35" x="63.623047"/>
       <use xlink:href="#DejaVuSans-30" x="127.246094"/>
      </g>
     </g>
    </g>
    <g id="xtick_9">
     <g id="line2d_9">
      <g>
       <use xlink:href="#mfaa1033d65" x="391.343285" y="307.584" style="stroke: #000000; stroke-width: 0.8"/>
      </g>
     </g>
     <g id="text_9">
      <!-- 400 -->
      <g transform="translate(381.799535 322.182437)scale(0.1 -0.1)">
       <defs>
        <path id="DejaVuSans-34" d="M 2419 4116 
L 825 1625 
L 2419 1625 
L 2419 4116 
z
M 2253 4666 
L 3047 4666 
L 3047 1625 
L 3713 1625 
L 3713 1100 
L 3047 1100 
L 3047 0 
L 2419 0 
L 2419 1100 
L 313 1100 
L 313 1709 
L 2253 4666 
z
" transform="scale(0.015625)"/>
       </defs>
       <use xlink:href="#DejaVuSans-34"/>
       <use xlink:href="#DejaVuSans-30" x="63.623047"/>
       <use xlink:href="#DejaVuSans-30" x="127.246094"/>
      </g>
     </g>
    </g>
    <g id="text_10">
     <!-- training time -->
     <g transform="translate(203.905312 335.860562)scale(0.1 -0.1)">
      <defs>
       <path id="DejaVuSans-74" d="M 1172 4494 
L 1172 3500 
L 2356 3500 
L 2356 3053 
L 1172 3053 
L 1172 1153 
Q 1172 725 1289 603 
Q 1406 481 1766 481 
L 2356 481 
L 2356 0 
L 1766 0 
Q 1100 0 847 248 
Q 594 497 594 1153 
L 594 3053 
L 172 3053 
L 172 3500 
L 594 3500 
L 594 4494 
L 1172 4494 
z
" transform="scale(0.015625)"/>
       <path id="DejaVuSans-72" d="M 2631 2963 
Q 2534 3019 2420 3045 
Q 2306 3072 2169 3072 
Q 1681 3072 1420 2755 
Q 1159 2438 1159 1844 
L 1159 0 
L 581 0 
L 581 3500 
L 1159 3500 
L 1159 2956 
Q 1341 3275 1631 3429 
Q 1922 3584 2338 3584 
Q 2397 3584 2469 3576 
Q 2541 3569 2628 3553 
L 2631 2963 
z
" transform="scale(0.015625)"/>
       <path id="DejaVuSans-61" d="M 2194 1759 
Q 1497 1759 1228 1600 
Q 959 1441 959 1056 
Q 959 750 1161 570 
Q 1363 391 1709 391 
Q 2188 391 2477 730 
Q 2766 1069 2766 1631 
L 2766 1759 
L 2194 1759 
z
M 3341 1997 
L 3341 0 
L 2766 0 
L 2766 531 
Q 2569 213 2275 61 
Q 1981 -91 1556 -91 
Q 1019 -91 701 211 
Q 384 513 384 1019 
Q 384 1609 779 1909 
Q 1175 2209 1959 2209 
L 2766 2209 
L 2766 2266 
Q 2766 2663 2505 2880 
Q 2244 3097 1772 3097 
Q 1472 3097 1187 3025 
Q 903 2953 641 2809 
L 641 3341 
Q 956 3463 1253 3523 
Q 1550 3584 1831 3584 
Q 2591 3584 2966 3190 
Q 3341 2797 3341 1997 
z
" transform="scale(0.015625)"/>
       <path id="DejaVuSans-69" d="M 603 3500 
L 1178 3500 
L 1178 0 
L 603 0 
L 603 3500 
z
M 603 4863 
L 1178 4863 
L 1178 4134 
L 603 4134 
L 603 4863 
z
" transform="scale(0.015625)"/>
       <path id="DejaVuSans-6e" d="M 3513 2113 
L 3513 0 
L 2938 0 
L 2938 2094 
Q 2938 2591 2744 2837 
Q 2550 3084 2163 3084 
Q 1697 3084 1428 2787 
Q 1159 2491 1159 1978 
L 1159 0 
L 581 0 
L 581 3500 
L 1159 3500 
L 1159 2956 
Q 1366 3272 1645 3428 
Q 1925 3584 2291 3584 
Q 2894 3584 3203 3211 
Q 3513 2838 3513 2113 
z
" transform="scale(0.015625)"/>
       <path id="DejaVuSans-67" d="M 2906 1791 
Q 2906 2416 2648 2759 
Q 2391 3103 1925 3103 
Q 1463 3103 1205 2759 
Q 947 2416 947 1791 
Q 947 1169 1205 825 
Q 1463 481 1925 481 
Q 2391 481 2648 825 
Q 2906 1169 2906 1791 
z
M 3481 434 
Q 3481 -459 3084 -895 
Q 2688 -1331 1869 -1331 
Q 1566 -1331 1297 -1286 
Q 1028 -1241 775 -1147 
L 775 -588 
Q 1028 -725 1275 -790 
Q 1522 -856 1778 -856 
Q 2344 -856 2625 -561 
Q 2906 -266 2906 331 
L 2906 616 
Q 2728 306 2450 153 
Q 2172 0 1784 0 
Q 1141 0 747 490 
Q 353 981 353 1791 
Q 353 2603 747 3093 
Q 1141 3584 1784 3584 
Q 2172 3584 2450 3431 
Q 2728 3278 2906 2969 
L 2906 3500 
L 3481 3500 
L 3481 434 
z
" transform="scale(0.015625)"/>
       <path id="DejaVuSans-20" transform="scale(0.015625)"/>
       <path id="DejaVuSans-6d" d="M 3328 2828 
Q 3544 3216 3844 3400 
Q 4144 3584 4550 3584 
Q 5097 3584 5394 3201 
Q 5691 2819 5691 2113 
L 5691 0 
L 5113 0 
L 5113 2094 
Q 5113 2597 4934 2840 
Q 4756 3084 4391 3084 
Q 3944 3084 3684 2787 
Q 3425 2491 3425 1978 
L 3425 0 
L 2847 0 
L 2847 2094 
Q 2847 2600 2669 2842 
Q 2491 3084 2119 3084 
Q 1678 3084 1418 2786 
Q 1159 2488 1159 1978 
L 1159 0 
L 581 0 
L 581 3500 
L 1159 3500 
L 1159 2956 
Q 1356 3278 1631 3431 
Q 1906 3584 2284 3584 
Q 2666 3584 2933 3390 
Q 3200 3197 3328 2828 
z
" transform="scale(0.015625)"/>
       <path id="DejaVuSans-65" d="M 3597 1894 
L 3597 1613 
L 953 1613 
Q 991 1019 1311 708 
Q 1631 397 2203 397 
Q 2534 397 2845 478 
Q 3156 559 3463 722 
L 3463 178 
Q 3153 47 2828 -22 
Q 2503 -91 2169 -91 
Q 1331 -91 842 396 
Q 353 884 353 1716 
Q 353 2575 817 3079 
Q 1281 3584 2069 3584 
Q 2775 3584 3186 3129 
Q 3597 2675 3597 1894 
z
M 3022 2063 
Q 3016 2534 2758 2815 
Q 2500 3097 2075 3097 
Q 1594 3097 1305 2825 
Q 1016 2553 972 2059 
L 3022 2063 
z
" transform="scale(0.015625)"/>
      </defs>
      <use xlink:href="#DejaVuSans-74"/>
      <use xlink:href="#DejaVuSans-72" x="39.208984"/>
      <use xlink:href="#DejaVuSans-61" x="80.322266"/>
      <use xlink:href="#DejaVuSans-69" x="141.601562"/>
      <use xlink:href="#DejaVuSans-6e" x="169.384766"/>
      <use xlink:href="#DejaVuSans-69" x="232.763672"/>
      <use xlink:href="#DejaVuSans-6e" x="260.546875"/>
      <use xlink:href="#DejaVuSans-67" x="323.925781"/>
      <use xlink:href="#DejaVuSans-20" x="387.402344"/>
      <use xlink:href="#DejaVuSans-74" x="419.189453"/>
      <use xlink:href="#DejaVuSans-69" x="458.398438"/>
      <use xlink:href="#DejaVuSans-6d" x="486.181641"/>
      <use xlink:href="#DejaVuSans-65" x="583.59375"/>
     </g>
    </g>
   </g>
   <g id="matplotlib.axis_2">
    <g id="ytick_1">
     <g id="line2d_10">
      <defs>
       <path id="m3e8e609e50" d="M 0 0 
L -3.5 0 
" style="stroke: #000000; stroke-width: 0.8"/>
      </defs>
      <g>
       <use xlink:href="#m3e8e609e50" x="57.6" y="296.412689" style="stroke: #000000; stroke-width: 0.8"/>
      </g>
     </g>
     <g id="text_11">
      <!-- 0.0 -->
      <g transform="translate(34.696875 300.211908)scale(0.1 -0.1)">
       <defs>
        <path id="DejaVuSans-2e" d="M 684 794 
L 1344 794 
L 1344 0 
L 684 0 
L 684 794 
z
" transform="scale(0.015625)"/>
       </defs>
       <use xlink:href="#DejaVuSans-30"/>
       <use xlink:href="#DejaVuSans-2e" x="63.623047"/>
       <use xlink:href="#DejaVuSans-30" x="95.410156"/>
      </g>
     </g>
    </g>
    <g id="ytick_2">
     <g id="line2d_11">
      <g>
       <use xlink:href="#m3e8e609e50" x="57.6" y="263.529005" style="stroke: #000000; stroke-width: 0.8"/>
      </g>
     </g>
     <g id="text_12">
      <!-- 2.5 -->
      <g transform="translate(34.696875 267.328224)scale(0.1 -0.1)">
       <use xlink:href="#DejaVuSans-32"/>
       <use xlink:href="#DejaVuSans-2e" x="63.623047"/>
       <use xlink:href="#DejaVuSans-35" x="95.410156"/>
      </g>
     </g>
    </g>
    <g id="ytick_3">
     <g id="line2d_12">
      <g>
       <use xlink:href="#m3e8e609e50" x="57.6" y="230.645322" style="stroke: #000000; stroke-width: 0.8"/>
      </g>
     </g>
     <g id="text_13">
      <!-- 5.0 -->
      <g transform="translate(34.696875 234.44454)scale(0.1 -0.1)">
       <use xlink:href="#DejaVuSans-35"/>
       <use xlink:href="#DejaVuSans-2e" x="63.623047"/>
       <use xlink:href="#DejaVuSans-30" x="95.410156"/>
      </g>
     </g>
    </g>
    <g id="ytick_4">
     <g id="line2d_13">
      <g>
       <use xlink:href="#m3e8e609e50" x="57.6" y="197.761638" style="stroke: #000000; stroke-width: 0.8"/>
      </g>
     </g>
     <g id="text_14">
      <!-- 7.5 -->
      <g transform="translate(34.696875 201.560857)scale(0.1 -0.1)">
       <defs>
        <path id="DejaVuSans-37" d="M 525 4666 
L 3525 4666 
L 3525 4397 
L 1831 0 
L 1172 0 
L 2766 4134 
L 525 4134 
L 525 4666 
z
" transform="scale(0.015625)"/>
       </defs>
       <use xlink:href="#DejaVuSans-37"/>
       <use xlink:href="#DejaVuSans-2e" x="63.623047"/>
       <use xlink:href="#DejaVuSans-35" x="95.410156"/>
      </g>
     </g>
    </g>
    <g id="ytick_5">
     <g id="line2d_14">
      <g>
       <use xlink:href="#m3e8e609e50" x="57.6" y="164.877954" style="stroke: #000000; stroke-width: 0.8"/>
      </g>
     </g>
     <g id="text_15">
      <!-- 10.0 -->
      <g transform="translate(28.334375 168.677173)scale(0.1 -0.1)">
       <use xlink:href="#DejaVuSans-31"/>
       <use xlink:href="#DejaVuSans-30" x="63.623047"/>
       <use xlink:href="#DejaVuSans-2e" x="127.246094"/>
       <use xlink:href="#DejaVuSans-30" x="159.033203"/>
      </g>
     </g>
    </g>
    <g id="ytick_6">
     <g id="line2d_15">
      <g>
       <use xlink:href="#m3e8e609e50" x="57.6" y="131.99427" style="stroke: #000000; stroke-width: 0.8"/>
      </g>
     </g>
     <g id="text_16">
      <!-- 12.5 -->
      <g transform="translate(28.334375 135.793489)scale(0.1 -0.1)">
       <use xlink:href="#DejaVuSans-31"/>
       <use xlink:href="#DejaVuSans-32" x="63.623047"/>
       <use xlink:href="#DejaVuSans-2e" x="127.246094"/>
       <use xlink:href="#DejaVuSans-35" x="159.033203"/>
      </g>
     </g>
    </g>
    <g id="ytick_7">
     <g id="line2d_16">
      <g>
       <use xlink:href="#m3e8e609e50" x="57.6" y="99.110587" style="stroke: #000000; stroke-width: 0.8"/>
      </g>
     </g>
     <g id="text_17">
      <!-- 15.0 -->
      <g transform="translate(28.334375 102.909805)scale(0.1 -0.1)">
       <use xlink:href="#DejaVuSans-31"/>
       <use xlink:href="#DejaVuSans-35" x="63.623047"/>
       <use xlink:href="#DejaVuSans-2e" x="127.246094"/>
       <use xlink:href="#DejaVuSans-30" x="159.033203"/>
      </g>
     </g>
    </g>
    <g id="ytick_8">
     <g id="line2d_17">
      <g>
       <use xlink:href="#m3e8e609e50" x="57.6" y="66.226903" style="stroke: #000000; stroke-width: 0.8"/>
      </g>
     </g>
     <g id="text_18">
      <!-- 17.5 -->
      <g transform="translate(28.334375 70.026122)scale(0.1 -0.1)">
       <use xlink:href="#DejaVuSans-31"/>
       <use xlink:href="#DejaVuSans-37" x="63.623047"/>
       <use xlink:href="#DejaVuSans-2e" x="127.246094"/>
       <use xlink:href="#DejaVuSans-35" x="159.033203"/>
      </g>
     </g>
    </g>
    <g id="text_19">
     <!-- loss -->
     <g transform="translate(22.254688 184.185812)rotate(-90)scale(0.1 -0.1)">
      <defs>
       <path id="DejaVuSans-6c" d="M 603 4863 
L 1178 4863 
L 1178 0 
L 603 0 
L 603 4863 
z
" transform="scale(0.015625)"/>
       <path id="DejaVuSans-6f" d="M 1959 3097 
Q 1497 3097 1228 2736 
Q 959 2375 959 1747 
Q 959 1119 1226 758 
Q 1494 397 1959 397 
Q 2419 397 2687 759 
Q 2956 1122 2956 1747 
Q 2956 2369 2687 2733 
Q 2419 3097 1959 3097 
z
M 1959 3584 
Q 2709 3584 3137 3096 
Q 3566 2609 3566 1747 
Q 3566 888 3137 398 
Q 2709 -91 1959 -91 
Q 1206 -91 779 398 
Q 353 888 353 1747 
Q 353 2609 779 3096 
Q 1206 3584 1959 3584 
z
" transform="scale(0.015625)"/>
       <path id="DejaVuSans-73" d="M 2834 3397 
L 2834 2853 
Q 2591 2978 2328 3040 
Q 2066 3103 1784 3103 
Q 1356 3103 1142 2972 
Q 928 2841 928 2578 
Q 928 2378 1081 2264 
Q 1234 2150 1697 2047 
L 1894 2003 
Q 2506 1872 2764 1633 
Q 3022 1394 3022 966 
Q 3022 478 2636 193 
Q 2250 -91 1575 -91 
Q 1294 -91 989 -36 
Q 684 19 347 128 
L 347 722 
Q 666 556 975 473 
Q 1284 391 1588 391 
Q 1994 391 2212 530 
Q 2431 669 2431 922 
Q 2431 1156 2273 1281 
Q 2116 1406 1581 1522 
L 1381 1569 
Q 847 1681 609 1914 
Q 372 2147 372 2553 
Q 372 3047 722 3315 
Q 1072 3584 1716 3584 
Q 2034 3584 2315 3537 
Q 2597 3491 2834 3397 
z
" transform="scale(0.015625)"/>
      </defs>
      <use xlink:href="#DejaVuSans-6c"/>
      <use xlink:href="#DejaVuSans-6f" x="27.783203"/>
      <use xlink:href="#DejaVuSans-73" x="88.964844"/>
      <use xlink:href="#DejaVuSans-73" x="141.064453"/>
     </g>
    </g>
   </g>
   <g id="line2d_18">
    <path d="M 73.832727 53.568 
L 74.626504 274.859408 
L 75.42028 275.903793 
L 76.214056 276.623288 
L 77.007833 277.031046 
L 78.595386 279.56309 
L 79.389162 280.465418 
L 80.976715 280.332568 
L 81.770491 281.161237 
L 82.564268 282.171423 
L 83.358044 281.445352 
L 84.15182 282.189838 
L 84.945597 282.393717 
L 85.739373 281.067847 
L 86.53315 281.841271 
L 88.120702 281.995167 
L 88.914479 282.908018 
L 89.708255 281.546633 
L 90.502032 280.737695 
L 91.295808 282.530513 
L 92.883361 282.042519 
L 93.677137 282.683094 
L 94.470914 282.690986 
L 95.26469 282.071457 
L 96.058466 283.004038 
L 96.852243 281.547949 
L 97.646019 282.91591 
L 98.439796 282.911964 
L 99.233572 282.635741 
L 100.027348 282.946163 
L 100.821125 282.792267 
L 101.614901 283.470987 
L 102.408677 282.316112 
L 103.202454 282.541036 
L 103.99623 282.437124 
L 104.790007 282.585758 
L 105.583783 283.552538 
L 106.377559 282.660733 
L 107.171336 283.067175 
L 107.965112 283.035607 
L 108.758889 283.57753 
L 109.552665 283.613044 
L 110.346441 283.168457 
L 111.140218 282.985623 
L 111.933994 282.679148 
L 112.727771 284.049739 
L 113.521547 283.076382 
L 114.315323 282.938271 
L 115.1091 283.962927 
L 115.902876 283.207917 
L 117.490429 283.019822 
L 118.284205 283.184241 
L 119.077982 282.409501 
L 119.871758 282.445016 
L 120.665535 283.463095 
L 121.459311 282.797529 
L 123.046864 283.223701 
L 123.84064 282.608119 
L 124.634417 283.385489 
L 125.428193 283.530177 
L 126.221969 283.102689 
L 127.015746 283.025084 
L 127.809522 283.322352 
L 128.603299 283.74721 
L 129.397075 282.904072 
L 130.190851 283.724849 
L 130.984628 283.25527 
L 131.778404 283.493348 
L 132.57218 283.055337 
L 133.365957 283.242116 
L 134.159733 282.886972 
L 134.95351 283.186872 
L 135.747286 282.676517 
L 136.541062 283.176349 
L 137.334839 283.528862 
L 138.128615 284.111561 
L 138.922392 283.098743 
L 139.716168 284.210212 
L 140.509944 283.574899 
L 141.303721 284.195743 
L 142.097497 284.660061 
L 142.891274 285.763637 
L 143.68505 285.978039 
L 144.478826 287.367045 
L 145.272603 286.858006 
L 146.066379 286.117465 
L 146.860156 286.291091 
L 147.653932 287.607754 
L 148.447708 286.847483 
L 149.241485 288.035242 
L 150.035261 288.645563 
L 150.829038 286.414734 
L 151.622814 287.363099 
L 152.41659 287.165797 
L 153.210367 286.658073 
L 154.004143 288.072072 
L 154.79792 286.877736 
L 155.591696 286.167449 
L 156.385472 287.784011 
L 157.179249 287.093453 
L 157.973025 287.13949 
L 159.560578 288.339087 
L 160.354354 286.281884 
L 161.148131 288.194399 
L 161.941907 286.865898 
L 162.735683 287.00664 
L 163.52946 287.973421 
L 164.323236 287.841886 
L 165.117013 287.568294 
L 165.910789 287.678783 
L 166.704565 288.737637 
L 167.498342 286.717264 
L 168.292118 288.06681 
L 169.085895 287.107922 
L 170.673447 288.565327 
L 171.467224 287.138175 
L 172.261 288.504821 
L 173.054777 287.468327 
L 173.848553 288.738953 
L 175.436106 287.626169 
L 176.229882 287.727451 
L 177.023659 288.269374 
L 177.817435 289.27693 
L 179.404988 287.730081 
L 180.198764 288.930993 
L 180.992541 288.299627 
L 182.580093 287.941852 
L 183.37387 288.403539 
L 184.167646 287.464381 
L 184.961423 288.240436 
L 185.755199 288.377232 
L 187.342752 287.955006 
L 188.136528 288.29305 
L 188.930305 287.620907 
L 189.724081 288.19703 
L 190.517857 288.365394 
L 191.311634 288.360133 
L 192.10541 288.157569 
L 192.899186 288.390386 
L 193.692963 289.100673 
L 194.486739 288.198345 
L 195.280516 289.103304 
L 196.074292 288.695546 
L 196.868068 289.138818 
L 197.661845 288.583742 
L 198.455621 289.42951 
L 199.249398 287.570924 
L 200.043174 288.432477 
L 200.83695 288.525866 
L 202.424503 288.353556 
L 203.21828 289.057267 
L 204.012056 290.633053 
L 204.805832 291.733999 
L 205.599609 290.896122 
L 206.393385 288.819189 
L 207.187162 289.186171 
L 207.980938 290.351569 
L 208.774714 290.985566 
L 209.568491 292.823106 
L 210.362267 293.682028 
L 211.156044 292.329851 
L 211.94982 291.751098 
L 212.743596 292.95201 
L 213.537373 292.228569 
L 214.331149 293.872753 
L 215.918702 292.95201 
L 216.712478 293.453158 
L 217.506255 292.846783 
L 218.300031 292.946749 
L 219.093808 293.729381 
L 219.887584 292.85599 
L 220.68136 293.546547 
L 221.475137 293.962197 
L 222.268913 293.488672 
L 223.062689 293.5768 
L 223.856466 293.357137 
L 224.650242 293.566278 
L 225.444019 293.651775 
L 226.237795 293.897745 
L 227.825348 292.640273 
L 228.619124 293.609684 
L 229.412901 293.891168 
L 230.206677 293.292685 
L 231.000453 293.091437 
L 231.79423 293.878015 
L 232.588006 293.546547 
L 233.381783 293.895114 
L 234.175559 292.87572 
L 234.969335 293.893799 
L 235.763112 294.08847 
L 236.556888 293.012516 
L 237.350665 294.263412 
L 238.144441 293.247963 
L 238.938217 294.102939 
L 239.731994 294.164761 
L 240.52577 292.94938 
L 241.319547 293.897745 
L 242.113323 292.888874 
L 242.907099 294.248943 
L 243.700876 293.760949 
L 244.494652 294.16213 
L 245.288429 294.309449 
L 246.082205 293.429481 
L 247.669758 293.059869 
L 248.463534 294.047695 
L 249.257311 293.550493 
L 250.051087 294.185806 
L 250.844863 293.743849 
L 251.63864 293.696497 
L 252.432416 293.174304 
L 253.226192 293.095383 
L 254.019969 293.776733 
L 254.813745 293.805671 
L 257.988851 293.312415 
L 258.782627 293.917475 
L 259.576404 293.511033 
L 260.37018 294.387054 
L 261.163956 293.67019 
L 261.957733 294.558049 
L 262.751509 294.056902 
L 263.545286 294.083209 
L 264.339062 293.153258 
L 265.132838 293.253225 
L 265.926615 293.663613 
L 266.720391 293.453158 
L 267.514168 292.933595 
L 268.307944 294.206852 
L 269.895497 294.780343 
L 270.689273 294.825065 
L 271.48305 294.080578 
L 272.276826 293.841185 
L 273.070602 294.897409 
L 273.864379 293.809617 
L 274.658155 293.278216 
L 275.451932 293.697812 
L 276.245708 294.564626 
L 277.039484 294.981591 
L 277.833261 294.986853 
L 279.420814 294.651439 
L 280.21459 294.588302 
L 281.008366 294.064794 
L 281.802143 294.763244 
L 282.595919 293.988504 
L 284.183472 294.52385 
L 284.977248 293.720173 
L 285.771025 294.414677 
L 286.564801 294.86321 
L 287.358577 294.558049 
L 288.152354 293.353191 
L 289.739907 294.732991 
L 290.533683 293.775418 
L 291.327459 294.35154 
L 292.121236 294.594879 
L 294.502565 294.247627 
L 295.296341 294.714576 
L 297.677671 294.163445 
L 298.471447 295.071035 
L 299.265223 294.440984 
L 300.059 294.75009 
L 300.852776 294.481759 
L 301.646553 294.490967 
L 302.440329 294.842164 
L 303.234105 294.301557 
L 304.821658 294.788235 
L 305.615435 294.604087 
L 306.409211 294.65407 
L 307.202987 294.264727 
L 307.996764 294.756667 
L 308.79054 294.771136 
L 309.584317 294.659331 
L 310.378093 295.177578 
L 311.965646 294.074002 
L 312.759422 294.496228 
L 313.553198 294.789551 
L 314.346975 294.86321 
L 315.140751 294.529112 
L 315.934528 294.644862 
L 316.728304 294.968438 
L 317.52208 294.623817 
L 318.315857 294.896094 
L 319.109633 294.696161 
L 319.90341 294.709314 
L 321.490962 294.437037 
L 322.284739 294.561995 
L 323.078515 294.918455 
L 323.872292 294.718522 
L 324.666068 294.775082 
L 325.459844 295.33805 
L 326.253621 293.954305 
L 327.047397 294.392316 
L 327.841174 294.968438 
L 328.63495 293.843816 
L 329.428726 294.643547 
L 330.222503 294.513328 
L 331.016279 295.036836 
L 331.810056 294.886886 
L 332.603832 293.862231 
L 333.397608 294.565942 
L 334.191385 294.239735 
L 334.985161 295.060512 
L 335.778938 294.965807 
L 336.572714 294.604087 
L 337.36649 294.905301 
L 338.160267 295.413025 
L 338.954043 294.761928 
L 339.74782 294.586987 
L 340.541596 294.748775 
L 341.335372 294.771136 
L 342.129149 295.377511 
L 342.922925 295.326212 
L 343.716701 294.717206 
L 344.510478 295.047359 
L 345.304254 294.473867 
L 346.098031 295.084188 
L 346.891807 295.111811 
L 347.685583 295.447224 
L 348.47936 294.44756 
L 350.860689 295.280175 
L 351.654465 295.269652 
L 352.448242 294.752721 
L 353.242018 295.302536 
L 354.035795 294.915824 
L 354.829571 295.039467 
L 355.623347 294.817173 
L 356.417124 294.760613 
L 357.2109 294.955284 
L 358.004677 294.611979 
L 358.798453 294.921085 
L 359.592229 294.734306 
L 360.386006 295.488 
L 361.179782 294.69353 
L 361.973559 294.915824 
L 363.561111 294.948708 
L 364.354888 294.250258 
L 365.148664 294.923716 
L 366.736217 294.907932 
L 367.529993 294.508066 
L 368.32377 294.746144 
L 369.911323 294.911878 
L 370.705099 294.71063 
L 371.498875 294.873733 
L 372.292652 294.701422 
L 373.086428 295.042097 
L 373.880204 294.744829 
L 374.673981 295.074981 
L 377.05531 294.309449 
L 377.849086 294.953969 
L 378.642863 294.760613 
L 380.230416 295.030259 
L 381.024192 294.605402 
L 381.817968 294.984222 
L 382.611745 295.215723 
L 383.405521 295.27886 
L 384.993074 294.930293 
L 385.78685 295.253868 
L 386.580627 294.592248 
L 387.374403 294.890832 
L 388.16818 294.9566 
L 388.961956 294.543581 
L 389.755732 294.715891 
L 390.549509 295.28149 
L 391.343285 295.178893 
L 392.137062 295.303851 
L 392.930838 295.044728 
L 393.724614 294.921085 
L 394.518391 295.309113 
L 395.312167 295.067089 
L 396.105944 295.136802 
L 396.89972 295.406448 
L 397.693496 294.619871 
L 398.487273 295.285437 
L 398.487273 295.285437 
" clip-path="url(#p61011450d1)" style="fill: none; stroke: #1f77b4; stroke-width: 1.5; stroke-linecap: square"/>
   </g>
   <g id="patch_3">
    <path d="M 57.6 307.584 
L 57.6 41.472 
" style="fill: none; stroke: #000000; stroke-width: 0.8; stroke-linejoin: miter; stroke-linecap: square"/>
   </g>
   <g id="patch_4">
    <path d="M 414.72 307.584 
L 414.72 41.472 
" style="fill: none; stroke: #000000; stroke-width: 0.8; stroke-linejoin: miter; stroke-linecap: square"/>
   </g>
   <g id="patch_5">
    <path d="M 57.6 307.584 
L 414.72 307.584 
" style="fill: none; stroke: #000000; stroke-width: 0.8; stroke-linejoin: miter; stroke-linecap: square"/>
   </g>
   <g id="patch_6">
    <path d="M 57.6 41.472 
L 414.72 41.472 
" style="fill: none; stroke: #000000; stroke-width: 0.8; stroke-linejoin: miter; stroke-linecap: square"/>
   </g>
  </g>
 </g>
 <defs>
  <clipPath id="p61011450d1">
   <rect x="57.6" y="41.472" width="357.12" height="266.112"/>
  </clipPath>
 </defs>
</svg>
